<svg width="687" height="99" viewBox="0 0 687 99" fill="none" xmlns="http://www.w3.org/2000/svg">
<path d="M69.045 41.5368C76.8292 49.321 86.5868 53.9293 96.7068 55.3677C99.5374 55.7761 102.397 55.9257 105.25 55.8222C109.099 55.7013 112.914 55.1203 116.642 54.0962C124.535 51.9272 131.997 47.7388 138.205 41.5311L124.374 27.7002C112.914 39.1607 94.3364 39.1607 82.8816 27.7002L69.0508 41.5311L69.045 41.5368Z" fill="#FF603A"/>
<path d="M83.3857 28.2117L69.9607 41.6367L119.494 91.1704L132.919 77.7454L83.3857 28.2117Z" fill="#FF603A"/>
<path d="M82.8758 27.7061C90.66 35.4902 95.2684 45.2478 96.7067 55.3678C97.1152 58.1984 97.2648 61.0577 97.1612 63.9114L97.1612 63.9171C97.0404 67.7603 96.4593 71.5747 95.4352 75.2971C93.2662 83.1906 89.0779 90.6526 82.8701 96.8603L69.0392 83.0295C80.4997 71.569 80.4997 52.9917 69.0392 41.5369L82.8701 27.7061L82.8758 27.7061Z" fill="#FF603A"/>
<path d="M69.16 62.3234C61.3759 54.5393 51.6183 49.9309 41.4983 48.4926C38.6677 48.0841 35.8083 47.9345 32.9547 48.0381C29.1058 48.1589 25.2914 48.74 21.5633 49.764C13.6698 51.933 6.20778 56.1214 1.8137e-06 62.3292L13.8309 76.16C25.2914 64.6995 43.8687 64.6995 55.3234 76.16L69.1543 62.3292L69.16 62.3234Z" fill="#FF603A"/>
<path d="M54.8194 75.6485L68.2444 62.2235L18.7107 12.6898L5.28573 26.1148L54.8194 75.6485Z" fill="#FF603A"/>
<path d="M55.3292 76.1543C47.5451 68.3701 42.9367 58.6126 41.4984 48.4926C41.0899 45.662 40.9403 42.8026 41.0439 39.949L41.0439 39.9432C41.1647 36.1 41.7458 32.2856 42.7699 28.5633C44.9388 20.6698 49.1272 13.2078 55.335 7.00001L69.1659 20.8309C57.7053 32.2914 57.7053 50.8687 69.1659 62.3234L55.335 76.1543L55.3292 76.1543Z" fill="#FF603A"/>
<path d="M202.209 97L197.912 84.8906H169.885L165.588 97H148.986L174.914 28.0059H193.225L219.201 97H202.209ZM174.914 70.584H192.883L183.898 45.0957L174.914 70.584ZM248.547 98.2207C240.702 98.2207 234.143 95.6654 228.869 90.5547C223.628 85.444 221.008 79.0964 221.008 71.5117C221.008 63.9271 223.628 57.5794 228.869 52.4688C234.143 47.3581 240.702 44.8027 248.547 44.8027C253.625 44.8027 258.231 45.9421 262.365 48.2207C266.499 50.4668 269.755 53.5592 272.131 57.498L259.436 65.2129C258.361 63.2923 256.864 61.7624 254.943 60.623C253.023 59.4837 250.891 58.9141 248.547 58.9141C244.966 58.9141 241.988 60.1185 239.611 62.5273C237.235 64.9362 236.047 67.931 236.047 71.5117C236.047 75.0924 237.235 78.0872 239.611 80.4961C241.988 82.9049 244.966 84.1094 248.547 84.1094C250.891 84.1094 253.023 83.5397 254.943 82.4004C256.864 81.2611 258.361 79.7311 259.436 77.8105L272.131 85.4766C269.755 89.4479 266.499 92.5729 262.365 94.8516C258.231 97.0977 253.625 98.2207 248.547 98.2207ZM311.291 59.3047H298.205V78.0059C298.205 82.0749 300.337 84.1094 304.602 84.1094C306.717 84.1094 308.947 83.5072 311.291 82.3027V96.0234C308.394 97.4883 305.139 98.2207 301.525 98.2207C295.536 98.2207 291.044 96.6257 288.049 93.4355C285.087 90.2129 283.605 85.8672 283.605 80.3984V59.3047H275.891V46.0234H283.605V33.377H298.205V46.0234H311.291V59.3047ZM327.6 39.4805C325.061 39.4805 322.928 38.6341 321.203 36.9414C319.478 35.2161 318.615 33.0677 318.615 30.4961C318.615 27.957 319.478 25.8411 321.203 24.1484C322.928 22.4557 325.061 21.6094 327.6 21.6094C330.204 21.6094 332.368 22.4557 334.094 24.1484C335.852 25.8411 336.73 27.957 336.73 30.4961C336.73 33.0677 335.852 35.2161 334.094 36.9414C332.368 38.6341 330.204 39.4805 327.6 39.4805ZM320.324 97V46.0234H334.924V97H320.324ZM371.008 98.2207C363.163 98.2207 356.604 95.6654 351.33 90.5547C346.089 85.444 343.469 79.0964 343.469 71.5117C343.469 63.9271 346.089 57.5794 351.33 52.4688C356.604 47.3581 363.163 44.8027 371.008 44.8027C376.184 44.8027 380.871 45.9746 385.07 48.3184C389.27 50.6296 392.557 53.8359 394.934 57.9375C397.31 62.0065 398.498 66.5312 398.498 71.5117C398.498 76.4922 397.31 81.0332 394.934 85.1348C392.557 89.2038 389.27 92.4102 385.07 94.7539C380.871 97.0651 376.184 98.2207 371.008 98.2207ZM362.072 80.4961C364.449 82.9049 367.427 84.1094 371.008 84.1094C374.589 84.1094 377.567 82.9049 379.943 80.4961C382.32 78.0872 383.508 75.0924 383.508 71.5117C383.508 67.931 382.32 64.9362 379.943 62.5273C377.567 60.1185 374.589 58.9141 371.008 58.9141C367.427 58.9141 364.449 60.1185 362.072 62.5273C359.696 64.9362 358.508 67.931 358.508 71.5117C358.508 75.0924 359.696 78.0872 362.072 80.4961ZM437.219 44.8027C443.078 44.8027 447.798 46.5768 451.379 50.125C454.96 53.6406 456.75 58.3281 456.75 64.1875V97H442.15V69.1191C442.15 66.0267 441.239 63.5527 439.416 61.6973C437.626 59.8418 435.233 58.9141 432.238 58.9141C429.113 58.9141 426.574 59.8743 424.621 61.7949C422.701 63.6829 421.74 66.1895 421.74 69.3145V97H407.141V46.0234H421.74V51.1016C425.842 46.9023 431.001 44.8027 437.219 44.8027Z" fill="black"/>
<path d="M513.488 42.6055H483.703V55.6914H509.582V70.291H483.703V97H468.176V28.0059H513.488V42.6055ZM521.984 97V24.9785H536.584V97H521.984ZM572.668 98.2207C564.823 98.2207 558.264 95.6654 552.99 90.5547C547.749 85.444 545.129 79.0964 545.129 71.5117C545.129 63.9271 547.749 57.5794 552.99 52.4688C558.264 47.3581 564.823 44.8027 572.668 44.8027C577.844 44.8027 582.531 45.9746 586.73 48.3184C590.93 50.6296 594.217 53.8359 596.594 57.9375C598.97 62.0065 600.158 66.5312 600.158 71.5117C600.158 76.4922 598.97 81.0332 596.594 85.1348C594.217 89.2038 590.93 92.4102 586.73 94.7539C582.531 97.0651 577.844 98.2207 572.668 98.2207ZM563.732 80.4961C566.109 82.9049 569.087 84.1094 572.668 84.1094C576.249 84.1094 579.227 82.9049 581.604 80.4961C583.98 78.0872 585.168 75.0924 585.168 71.5117C585.168 67.931 583.98 64.9362 581.604 62.5273C579.227 60.1185 576.249 58.9141 572.668 58.9141C569.087 58.9141 566.109 60.1185 563.732 62.5273C561.356 64.9362 560.168 67.931 560.168 71.5117C560.168 75.0924 561.356 78.0872 563.732 80.4961ZM669.641 46.0234H685.559L667.639 97H652.648L643.078 64.0898L633.459 97H618.469L600.549 46.0234H616.857L626.281 78.0059L635.852 46.0234H650.646L660.266 78.1035L669.641 46.0234Z" fill="#FF603A"/>
</svg>
